HIERARCHY
ROOT mixamorig:Hips
{
	OFFSET -0.000008 104.274872 1.554316
	CHANNELS 6 Xposition Yposition Zposition Xrotation Yrotation Zrotation
	JOINT mixamorig:Spine
	{
		OFFSET -0.000005 10.181595 0.131519
		CHANNELS 6 Xposition Yposition Zposition Xrotation Yrotation Zrotation
		JOINT mixamorig:Spine1
		{
			OFFSET -0.000000 9.893959 -1.470707
			CHANNELS 6 Xposition Yposition Zposition Xrotation Yrotation Zrotation
			JOINT mixamorig:Spine2
			{
				OFFSET -0.000000 9.220757 -1.370641
				CHANNELS 6 Xposition Yposition Zposition Xrotation Yrotation Zrotation
				JOINT mixamorig:Neck
				{
					OFFSET 0.000001 16.740417 -2.049036
					CHANNELS 6 Xposition Yposition Zposition Xrotation Yrotation Zrotation
					JOINT mixamorig:Head
					{
						OFFSET 0.000000 9.617874 1.685006
						CHANNELS 6 Xposition Yposition Zposition Xrotation Yrotation Zrotation
						JOINT mixamorig:HeadTop_End
						{
							OFFSET 0.000002 22.037354 7.501101
							CHANNELS 6 Xposition Yposition Zposition Xrotation Yrotation Zrotation
							End Site
							{
								OFFSET 0.000168 2310.654297 -282.823242
							}
						}
					}
				}
				JOINT mixamorig:RightShoulder
				{
					OFFSET -4.569970 11.014908 -2.160885
					CHANNELS 6 Xposition Yposition Zposition Xrotation Yrotation Zrotation
					JOINT mixamorig:RightArm
					{
						OFFSET -10.592851 -0.524811 -2.232101
						CHANNELS 6 Xposition Yposition Zposition Xrotation Yrotation Zrotation
						JOINT mixamorig:RightForeArm
						{
							OFFSET -27.841511 0.000031 -0.000004
							CHANNELS 6 Xposition Yposition Zposition Xrotation Yrotation Zrotation
							JOINT mixamorig:RightHand
							{
								OFFSET -28.328831 -0.000015 0.000015
								CHANNELS 6 Xposition Yposition Zposition Xrotation Yrotation Zrotation
								JOINT mixamorig:RightHandThumb1
								{
									OFFSET -2.464806 -1.573990 2.681852
									CHANNELS 6 Xposition Yposition Zposition Xrotation Yrotation Zrotation
									JOINT mixamorig:RightHandThumb2
									{
										OFFSET -3.215179 -1.872803 1.924282
										CHANNELS 6 Xposition Yposition Zposition Xrotation Yrotation Zrotation
										JOINT mixamorig:RightHandThumb3
										{
											OFFSET -2.654831 -1.527969 1.512609
											CHANNELS 6 Xposition Yposition Zposition Xrotation Yrotation Zrotation
											JOINT mixamorig:RightHandThumb4
											{
												OFFSET -2.018814 -1.152008 1.108052
												CHANNELS 6 Xposition Yposition Zposition Xrotation Yrotation Zrotation
												End Site
												{
													OFFSET -188.809540 -114.533607 132.431396
												}
											}
										}
									}
								}
								JOINT mixamorig:RightHandIndex1
								{
									OFFSET -9.108284 -0.517868 2.259835
									CHANNELS 6 Xposition Yposition Zposition Xrotation Yrotation Zrotation
									JOINT mixamorig:RightHandIndex2
									{
										OFFSET -3.699989 0.000000 0.001215
										CHANNELS 6 Xposition Yposition Zposition Xrotation Yrotation Zrotation
										JOINT mixamorig:RightHandIndex3
										{
											OFFSET -2.850006 0.000031 -0.000522
											CHANNELS 6 Xposition Yposition Zposition Xrotation Yrotation Zrotation
											JOINT mixamorig:RightHandIndex4
											{
												OFFSET -2.772186 -0.000015 -0.000020
												CHANNELS 6 Xposition Yposition Zposition Xrotation Yrotation Zrotation
												End Site
												{
													OFFSET -277.218445 0.000000 -0.050231
												}
											}
										}
									}
								}
								JOINT mixamorig:RightHandMiddle1
								{
									OFFSET -9.532516 -0.000031 -0.000023
									CHANNELS 6 Xposition Yposition Zposition Xrotation Yrotation Zrotation
									JOINT mixamorig:RightHandMiddle2
									{
										OFFSET -3.700005 -0.000015 0.003713
										CHANNELS 6 Xposition Yposition Zposition Xrotation Yrotation Zrotation
										JOINT mixamorig:RightHandMiddle3
										{
											OFFSET -2.949974 0.000015 -0.002054
											CHANNELS 6 Xposition Yposition Zposition Xrotation Yrotation Zrotation
											JOINT mixamorig:RightHandMiddle4
											{
												OFFSET -2.946640 0.000000 -0.000156
												CHANNELS 6 Xposition Yposition Zposition Xrotation Yrotation Zrotation
												End Site
												{
													OFFSET -294.664337 0.000000 -0.113670
												}
											}
										}
									}
								}
								JOINT mixamorig:RightHandRing1
								{
									OFFSET -9.103600 -0.043076 -1.865134
									CHANNELS 6 Xposition Yposition Zposition Xrotation Yrotation Zrotation
									JOINT mixamorig:RightHandRing2
									{
										OFFSET -3.379288 0.000000 -0.001055
										CHANNELS 6 Xposition Yposition Zposition Xrotation Yrotation Zrotation
										JOINT mixamorig:RightHandRing3
										{
											OFFSET -2.889687 -0.000015 0.000379
											CHANNELS 6 Xposition Yposition Zposition Xrotation Yrotation Zrotation
											JOINT mixamorig:RightHandRing4
											{
												OFFSET -2.638809 -0.000015 0.000941
												CHANNELS 6 Xposition Yposition Zposition Xrotation Yrotation Zrotation
												End Site
												{
													OFFSET -263.880371 0.000000 0.516020
												}
											}
										}
									}
								}
								JOINT mixamorig:RightHandPinky1
								{
									OFFSET -8.076683 -0.486710 -3.806280
									CHANNELS 6 Xposition Yposition Zposition Xrotation Yrotation Zrotation
									JOINT mixamorig:RightHandPinky2
									{
										OFFSET -3.600014 -0.000015 -0.003747
										CHANNELS 6 Xposition Yposition Zposition Xrotation Yrotation Zrotation
										JOINT mixamorig:RightHandPinky3
										{
											OFFSET -2.099983 0.000000 -0.005739
											CHANNELS 6 Xposition Yposition Zposition Xrotation Yrotation Zrotation
											JOINT mixamorig:RightHandPinky4
											{
												OFFSET -2.115768 -0.000031 -0.003680
												CHANNELS 6 Xposition Yposition Zposition Xrotation Yrotation Zrotation
												End Site
												{
													OFFSET -211.577087 0.000000 -0.350686
												}
											}
										}
									}
								}
							}
						}
					}
				}
				JOINT mixamorig:LeftShoulder
				{
					OFFSET 4.570447 11.014725 -2.160855
					CHANNELS 6 Xposition Yposition Zposition Xrotation Yrotation Zrotation
					JOINT mixamorig:LeftArm
					{
						OFFSET 10.592371 -0.524597 -2.232119
						CHANNELS 6 Xposition Yposition Zposition Xrotation Yrotation Zrotation
						JOINT mixamorig:LeftForeArm
						{
							OFFSET 27.841532 -0.000031 0.000026
							CHANNELS 6 Xposition Yposition Zposition Xrotation Yrotation Zrotation
							JOINT mixamorig:LeftHand
							{
								OFFSET 28.328846 -0.000061 0.000022
								CHANNELS 6 Xposition Yposition Zposition Xrotation Yrotation Zrotation
								JOINT mixamorig:LeftHandThumb1
								{
									OFFSET 2.466141 -1.576172 2.681732
									CHANNELS 6 Xposition Yposition Zposition Xrotation Yrotation Zrotation
									JOINT mixamorig:LeftHandThumb2
									{
										OFFSET 3.217812 -1.872070 1.916482
										CHANNELS 6 Xposition Yposition Zposition Xrotation Yrotation Zrotation
										JOINT mixamorig:LeftHandThumb3
										{
											OFFSET 2.656029 -1.528778 1.514513
											CHANNELS 6 Xposition Yposition Zposition Xrotation Yrotation Zrotation
											JOINT mixamorig:LeftHandThumb4
											{
												OFFSET 2.020889 -1.154053 1.115139
												CHANNELS 6 Xposition Yposition Zposition Xrotation Yrotation Zrotation
												End Site
												{
													OFFSET 190.885437 -115.081749 130.048782
												}
											}
										}
									}
								}
								JOINT mixamorig:LeftHandIndex1
								{
									OFFSET 9.109314 -0.518021 2.259871
									CHANNELS 6 Xposition Yposition Zposition Xrotation Yrotation Zrotation
									JOINT mixamorig:LeftHandIndex2
									{
										OFFSET 3.699989 0.000000 -0.000322
										CHANNELS 6 Xposition Yposition Zposition Xrotation Yrotation Zrotation
										JOINT mixamorig:LeftHandIndex3
										{
											OFFSET 2.850006 0.000000 0.000352
											CHANNELS 6 Xposition Yposition Zposition Xrotation Yrotation Zrotation
											JOINT mixamorig:LeftHandIndex4
											{
												OFFSET 2.774864 -0.000031 -0.000027
												CHANNELS 6 Xposition Yposition Zposition Xrotation Yrotation Zrotation
												End Site
												{
													OFFSET 277.486267 0.000000 -0.009857
												}
											}
										}
									}
								}
								JOINT mixamorig:LeftHandMiddle1
								{
									OFFSET 9.533394 0.000061 0.000044
									CHANNELS 6 Xposition Yposition Zposition Xrotation Yrotation Zrotation
									JOINT mixamorig:LeftHandMiddle2
									{
										OFFSET 3.699989 -0.000015 -0.000231
										CHANNELS 6 Xposition Yposition Zposition Xrotation Yrotation Zrotation
										JOINT mixamorig:LeftHandMiddle3
										{
											OFFSET 2.949997 -0.000015 -0.000059
											CHANNELS 6 Xposition Yposition Zposition Xrotation Yrotation Zrotation
											JOINT mixamorig:LeftHandMiddle4
											{
												OFFSET 2.952896 0.000031 0.000063
												CHANNELS 6 Xposition Yposition Zposition Xrotation Yrotation Zrotation
												End Site
												{
													OFFSET 295.289337 0.000000 0.022810
												}
											}
										}
									}
								}
								JOINT mixamorig:LeftHandRing1
								{
									OFFSET 9.104523 -0.042999 -1.865074
									CHANNELS 6 Xposition Yposition Zposition Xrotation Yrotation Zrotation
									JOINT mixamorig:LeftHandRing2
									{
										OFFSET 3.150009 -0.000031 0.000043
										CHANNELS 6 Xposition Yposition Zposition Xrotation Yrotation Zrotation
										JOINT mixamorig:LeftHandRing3
										{
											OFFSET 2.949982 -0.000015 0.000040
											CHANNELS 6 Xposition Yposition Zposition Xrotation Yrotation Zrotation
											JOINT mixamorig:LeftHandRing4
											{
												OFFSET 2.644348 0.000000 0.000057
												CHANNELS 6 Xposition Yposition Zposition Xrotation Yrotation Zrotation
												End Site
												{
													OFFSET 264.434631 0.000000 0.012105
												}
											}
										}
									}
								}
								JOINT mixamorig:LeftHandPinky1
								{
									OFFSET 8.077789 -0.486847 -3.806259
									CHANNELS 6 Xposition Yposition Zposition Xrotation Yrotation Zrotation
									JOINT mixamorig:LeftHandPinky2
									{
										OFFSET 3.599953 0.000031 0.014727
										CHANNELS 6 Xposition Yposition Zposition Xrotation Yrotation Zrotation
										JOINT mixamorig:LeftHandPinky3
										{
											OFFSET 2.100021 0.000015 0.007705
											CHANNELS 6 Xposition Yposition Zposition Xrotation Yrotation Zrotation
											JOINT mixamorig:LeftHandPinky4
											{
												OFFSET 2.125504 0.000031 0.007517
												CHANNELS 6 Xposition Yposition Zposition Xrotation Yrotation Zrotation
												End Site
												{
													OFFSET 212.550781 0.000000 0.625752
												}
											}
										}
									}
								}
							}
						}
					}
				}
			}
		}
	}
	JOINT mixamorig:RightUpLeg
	{
		OFFSET -8.207787 -6.751648 -1.599560
		CHANNELS 6 Xposition Yposition Zposition Xrotation Yrotation Zrotation
		JOINT mixamorig:RightLeg
		{
			OFFSET -0.000002 -44.370117 0.345942
			CHANNELS 6 Xposition Yposition Zposition Xrotation Yrotation Zrotation
			JOINT mixamorig:RightFoot
			{
				OFFSET 0.000003 -44.423679 -3.043532
				CHANNELS 6 Xposition Yposition Zposition Xrotation Yrotation Zrotation
				JOINT mixamorig:RightToeBase
				{
					OFFSET -0.000002 -8.728671 10.710558
					CHANNELS 6 Xposition Yposition Zposition Xrotation Yrotation Zrotation
					JOINT mixamorig:RightToe_End
					{
						OFFSET -0.000001 -0.000679 9.278119
						CHANNELS 6 Xposition Yposition Zposition Xrotation Yrotation Zrotation
						End Site
						{
							OFFSET 0.000000 -0.067690 927.812134
						}
					}
				}
			}
		}
	}
	JOINT mixamorig:LeftUpLeg
	{
		OFFSET 8.207793 -6.751686 -1.599556
		CHANNELS 6 Xposition Yposition Zposition Xrotation Yrotation Zrotation
		JOINT mixamorig:LeftLeg
		{
			OFFSET -0.000004 -44.370014 0.346954
			CHANNELS 6 Xposition Yposition Zposition Xrotation Yrotation Zrotation
			JOINT mixamorig:LeftFoot
			{
				OFFSET -0.000001 -44.423672 -3.044401
				CHANNELS 6 Xposition Yposition Zposition Xrotation Yrotation Zrotation
				JOINT mixamorig:LeftToeBase
				{
					OFFSET -0.000002 -8.728669 10.710558
					CHANNELS 6 Xposition Yposition Zposition Xrotation Yrotation Zrotation
					JOINT mixamorig:LeftToe_End
					{
						OFFSET -0.000003 -0.000679 9.278133
						CHANNELS 6 Xposition Yposition Zposition Xrotation Yrotation Zrotation
						End Site
						{
							OFFSET 0.000000 -0.068021 927.813477
						}
					}
				}
			}
		}
	}
}
MOTION
Frames: 3
Frame Time: 0.033333
0.000006 104.270477 1.554256 0.000010 0.000003 -0.000113 -0.000005 10.181587 0.131522 0.000001 -0.000003 0.000084 -0.000000 9.893967 -1.470711 0.000001 0.000000 -0.000000 -0.000000 9.220802 -1.370642 0.000000 -0.000000 -0.000000 0.000001 16.740433 -2.049030 0.000000 -0.000000 -0.000000 0.000000 9.617859 1.685014 0.000000 0.000000 0.000000 0.000002 22.037384 7.501101 0.000000 -0.000000 0.000000 -4.569968 11.014880 -2.160881 0.000008 0.000001 -0.000038 -10.592870 -0.524771 -2.231880 74.306830 33.008409 -25.308364 -27.841528 0.000015 0.000543 -57.667745 106.370511 72.669436 -28.328825 0.000021 0.000030 -0.000318 -0.000043 0.000005 -2.464436 -1.573925 2.682379 -32.196887 -151.731683 21.525577 -3.215228 -1.872509 1.924632 148.657879 33.945159 29.294149 -2.654949 -1.527880 1.513071 150.320388 26.920207 -31.715119 -2.018827 -1.151999 1.108048 -0.000000 0.000000 0.000005 -9.108401 -0.517565 2.260190 108.537621 17.458129 -24.160720 -3.700074 0.000282 0.001564 104.579793 14.791374 -19.029206 -2.850091 0.000370 -0.000217 102.761084 12.159012 -15.187349 -2.772179 -0.000015 -0.000021 -0.000001 0.000002 -0.000000 -9.532589 0.000278 0.000266 99.456345 15.805771 -18.776919 -3.700080 0.000324 0.004005 98.955965 14.008105 -16.245984 -2.950046 0.000342 -0.001783 98.442123 12.334559 -14.273137 -2.946640 -0.000000 -0.000154 -0.000001 0.000001 0.000000 -9.103718 -0.042764 -1.864860 97.584327 18.610473 -21.145077 -3.379349 0.000313 -0.000762 99.940844 12.603477 -15.000718 -2.889779 0.000337 0.000660 103.491607 7.876029 -10.038166 -2.638796 -0.000016 0.000941 -0.000000 -0.000002 -0.000002 -8.076765 -0.486389 -3.806036 85.331637 17.186438 -15.718577 -3.600039 0.000286 -0.003518 88.446428 8.787254 -8.205889 -2.100017 0.000321 -0.005488 91.133233 5.188383 -5.069615 -2.115771 -0.000036 -0.003678 0.000007 -0.000003 -0.000002 4.570446 11.014691 -2.160851 -0.000018 0.000010 -0.000021 10.592417 -0.524473 -2.232370 72.955600 -19.200690 14.256714 27.841822 0.000050 -0.000215 101.040013 -73.029202 83.896156 28.328850 -0.000045 0.000019 0.000021 -0.000089 -0.000001 2.466158 -1.576135 2.681885 -9.052252 154.255533 -63.640055 3.217756 -1.871712 1.916382 157.423498 -33.382946 -11.464321 2.656094 -1.528625 1.514443 145.113543 -26.581565 44.231007 2.020895 -1.154081 1.115144 0.000001 0.000003 0.000004 9.109369 -0.517885 2.259735 79.128513 -19.521490 16.167891 3.700057 0.000118 -0.000437 75.964599 -22.097784 17.351950 2.850056 0.000145 0.000202 75.202814 -17.543300 13.552764 2.774880 -0.000030 -0.000029 0.000000 -0.000000 0.000003 9.533454 0.000182 -0.000076 77.207659 -18.264044 14.619450 3.700065 0.000146 -0.000367 83.746923 -19.460836 17.475215 2.950075 0.000129 -0.000181 81.976286 -22.763340 19.846033 2.952877 -0.000029 0.000063 0.000000 -0.000001 -0.000001 9.104576 -0.042882 -1.865219 75.620057 -17.357760 13.511511 3.150060 0.000161 -0.000083 86.091044 -16.860894 15.764360 2.950022 0.000149 -0.000043 87.706418 -19.007161 18.275786 2.644326 0.000029 0.000055 -0.000001 -0.000000 -0.000000 8.077817 -0.486757 -3.806377 65.113935 -16.945930 11.255473 3.599992 0.000143 0.014573 65.429640 -13.436967 8.990601 2.100023 0.000145 0.007561 70.247048 -13.621594 9.955976 2.125510 -0.000001 0.007519 0.000001 -0.000002 0.000000 -8.207786 -6.751667 -1.599560 -0.077001 -0.000003 0.000080 -0.000002 -44.370110 0.345938 0.153719 -0.000000 -0.000000 0.000000 -44.423679 -3.043532 -0.076700 0.000000 -0.000002 -0.000006 -8.728667 10.710559 -0.000009 -0.000000 -0.000000 -0.000001 -0.000679 9.278123 0.000000 -0.000000 -0.000000 8.207792 -6.751710 -1.599556 -0.074518 -0.000003 0.000081 -0.000002 -44.370014 0.346960 0.148822 0.000002 0.000000 -0.000001 -44.423664 -3.044403 -0.074314 0.000000 -0.000002 -0.000004 -8.728671 10.710558 0.000007 -0.000000 -0.000000 0.000000 -0.000680 9.278137 -0.000000 0.000000 -0.000001 
0.000006 104.270477 1.554256 0.000010 0.000003 -0.000113 -0.000005 10.181587 0.131522 0.000001 -0.000003 0.000084 -0.000000 9.893967 -1.470711 0.000001 0.000000 -0.000000 -0.000000 9.220802 -1.370642 0.000000 -0.000000 -0.000000 0.000001 16.740433 -2.049030 0.000000 -0.000000 -0.000000 0.000000 9.617859 1.685014 0.000000 0.000000 0.000000 0.000002 22.037384 7.501101 0.000000 -0.000000 0.000000 -4.569968 11.014880 -2.160881 0.000008 0.000001 -0.000038 -10.592863 -0.524793 -2.231859 74.383977 38.510259 -29.691792 -27.841536 0.000006 0.000539 -54.496727 104.494354 67.252604 -28.328817 0.000021 0.000031 -0.000323 -0.000043 0.000006 -2.464409 -1.573855 2.682343 -41.274444 -154.481804 3.971881 -3.215246 -1.872506 1.924615 146.710373 33.162460 27.954935 -2.654954 -1.527861 1.513047 147.186697 28.242854 -22.761170 -2.018834 -1.152011 1.108061 -0.000004 -0.000001 0.000002 -9.108377 -0.517565 2.260150 107.093343 16.336091 -22.054459 -3.700057 0.000314 0.001547 104.160159 14.055216 -17.953309 -2.850102 0.000361 -0.000220 103.039189 11.876079 -14.908594 -2.772163 -0.000001 -0.000015 0.000000 -0.000001 -0.000000 -9.532606 0.000272 0.000251 97.964830 16.977431 -19.637012 -3.700097 0.000316 0.004000 99.762050 13.793757 -16.223434 -2.950038 0.000341 -0.001772 102.407963 12.997053 -16.120734 -2.946633 -0.000015 -0.000155 -0.000000 0.000001 0.000000 -9.103696 -0.042759 -1.864865 95.725415 19.003275 -20.911620 -3.379351 0.000300 -0.000779 99.303553 11.752658 -13.836913 -2.889759 0.000360 0.000707 106.552508 8.579273 -11.545432 -2.638812 -0.000000 0.000938 0.000000 -0.000000 -0.000002 -8.076751 -0.486419 -3.806038 84.746925 20.237478 -18.352293 -3.600049 0.000258 -0.003512 89.363839 10.978504 -10.495647 -2.100024 0.000313 -0.005469 94.085371 6.464936 -6.703803 -2.115781 -0.000036 -0.003678 0.000003 0.000002 -0.000001 4.570446 11.014691 -2.160851 -0.000018 0.000010 -0.000021 10.592409 -0.524476 -2.232353 72.318869 -16.284399 11.938171 27.841820 0.000063 -0.000173 102.910208 -75.040399 87.888941 28.328836 -0.000027 0.000018 0.000018 -0.000088 0.000001 2.466233 -1.576110 2.681853 1.659558 161.167944 -85.724318 3.217784 -1.871709 1.916382 162.164100 -32.402923 -3.024917 2.656119 -1.528658 1.514480 143.384536 -26.301348 54.229551 2.020891 -1.154069 1.115147 0.000004 0.000006 0.000006 9.109391 -0.517872 2.259747 83.837642 -21.686809 19.504500 3.700041 0.000147 -0.000467 78.042329 -14.188696 11.532634 2.850044 0.000158 0.000217 76.295768 -11.480839 9.028179 2.774894 -0.000031 -0.000023 0.000000 -0.000000 0.000000 9.533469 0.000178 -0.000080 81.132026 -21.059474 18.074624 3.700057 0.000165 -0.000373 82.260387 -12.236174 10.692939 2.950056 0.000169 -0.000208 82.706283 -13.344729 11.760151 2.952851 -0.000030 0.000061 0.000001 0.000001 -0.000000 9.104592 -0.042881 -1.865218 78.330679 -20.952891 17.133350 3.150055 0.000203 -0.000107 86.608335 -12.520775 11.807661 2.950009 0.000183 -0.000064 87.780205 -11.436457 11.006152 2.644311 0.000030 0.000059 -0.000004 -0.000001 -0.000000 8.077840 -0.486762 -3.806391 67.675065 -20.287631 14.100651 3.599985 0.000129 0.014574 66.796313 -15.751762 10.776819 2.100024 0.000149 0.007546 70.166574 -12.352380 9.038382 2.125495 0.000002 0.007518 0.000001 0.000002 0.000000 -8.207786 -6.751667 -1.599560 -0.077001 -0.000003 0.000080 -0.000002 -44.370110 0.345938 0.153719 -0.000000 -0.000000 0.000000 -44.423679 -3.043532 -0.076700 0.000000 -0.000002 -0.000006 -8.728667 10.710559 -0.000009 -0.000000 -0.000000 -0.000001 -0.000679 9.278123 0.000000 -0.000000 -0.000000 8.207792 -6.751710 -1.599556 -0.074518 -0.000003 0.000081 -0.000002 -44.370014 0.346960 0.148822 0.000002 0.000000 -0.000001 -44.423664 -3.044403 -0.074314 0.000000 -0.000002 -0.000004 -8.728671 10.710558 0.000007 -0.000000 -0.000000 0.000000 -0.000680 9.278137 -0.000000 0.000000 -0.000001 
0.000006 104.270477 1.554256 0.000010 0.000003 -0.000113 -0.000005 10.181587 0.131522 0.000001 -0.000003 0.000084 -0.000000 9.893967 -1.470711 0.000001 0.000000 -0.000000 -0.000000 9.220802 -1.370642 0.000000 -0.000000 -0.000000 0.000001 16.740433 -2.049030 0.000000 -0.000000 -0.000000 0.000000 9.617859 1.685014 0.000000 0.000000 0.000000 0.000002 22.037384 7.501101 0.000000 -0.000000 0.000000 -4.569968 11.014880 -2.160881 0.000008 0.000001 -0.000038 -10.592860 -0.524797 -2.231840 74.259408 41.595295 -32.086603 -27.841526 -0.000004 0.000540 -52.704776 102.960293 63.789698 -28.328800 0.000020 0.000034 -0.000322 -0.000044 0.000005 -2.464407 -1.573845 2.682338 -41.437883 -155.812393 4.001412 -3.215259 -1.872573 1.924636 150.301127 31.697504 8.718903 -2.654950 -1.527851 1.513038 144.598738 28.232030 -25.851129 -2.018826 -1.151997 1.108069 -0.000001 0.000001 0.000002 -9.108377 -0.517570 2.260152 105.821275 16.688100 -22.020306 -3.700071 0.000316 0.001543 102.488867 14.217136 -17.631389 -2.850078 0.000359 -0.000231 100.887024 11.877818 -14.355044 -2.772155 -0.000015 -0.000018 -0.000000 -0.000003 -0.000000 -9.532585 0.000272 0.000255 97.252215 16.646272 -19.022627 -3.700077 0.000316 0.004002 98.425990 13.835515 -15.897854 -2.950058 0.000340 -0.001771 100.093103 13.051021 -15.542239 -2.946632 -0.000014 -0.000154 -0.000002 -0.000001 -0.000000 -9.103692 -0.042763 -1.864845 95.314996 18.580683 -20.303892 -3.379363 0.000292 -0.000783 98.533873 12.201986 -14.171714 -2.889772 0.000340 0.000679 104.475974 9.081211 -11.767650 -2.638845 -0.000015 0.000935 0.000000 -0.000002 -0.000001 -8.076754 -0.486397 -3.806021 85.178524 19.651639 -17.948916 -3.600048 0.000265 -0.003510 89.582336 11.077255 -10.633162 -2.100015 0.000313 -0.005490 93.256370 6.888344 -7.054179 -2.115790 -0.000055 -0.003678 -0.000001 -0.000000 -0.000004 4.570446 11.014691 -2.160851 -0.000018 0.000010 -0.000021 10.592432 -0.524478 -2.232383 71.002542 -24.550536 17.644836 27.841837 0.000040 -0.000181 104.176798 -76.062243 90.246552 28.328829 -0.000029 0.000023 0.000022 -0.000090 0.000001 2.466214 -1.576112 2.681860 2.869044 160.880011 -86.945030 3.217817 -1.871759 1.916379 164.322180 -28.874710 12.829680 2.656117 -1.528651 1.514474 142.108287 -26.746176 54.155115 2.020891 -1.154065 1.115151 0.000002 0.000002 0.000002 9.109384 -0.517870 2.259746 84.046113 -21.907420 19.774741 3.700040 0.000148 -0.000458 79.174706 -13.975323 11.588557 2.850042 0.000177 0.000191 77.460274 -11.416495 9.165973 2.774879 -0.000030 -0.000026 0.000001 -0.000000 0.000000 9.533459 0.000181 -0.000083 81.530705 -21.645284 18.709654 3.700052 0.000161 -0.000364 83.613837 -12.390564 11.087368 2.950068 0.000150 -0.000189 84.423884 -12.605970 11.446022 2.952866 -0.000015 0.000064 -0.000001 -0.000000 -0.000000 9.104597 -0.042880 -1.865210 79.532738 -21.476396 17.938133 3.150067 0.000194 -0.000104 86.872479 -13.331572 12.630656 2.950015 0.000165 -0.000092 87.635951 -11.182923 10.735156 2.644334 0.000015 0.000057 0.000003 0.000001 -0.000000 8.077847 -0.486756 -3.806393 69.668100 -21.170889 15.258849 3.600010 0.000126 0.014571 68.552525 -17.238580 12.167574 2.100039 0.000150 0.007535 71.646178 -12.961282 9.731951 2.125487 0.000000 0.007512 0.000000 0.000004 0.000000 -8.207786 -6.751667 -1.599560 -0.077001 -0.000003 0.000080 -0.000002 -44.370110 0.345938 0.153719 -0.000000 -0.000000 0.000000 -44.423679 -3.043532 -0.076700 0.000000 -0.000002 -0.000006 -8.728667 10.710559 -0.000009 -0.000000 -0.000000 -0.000001 -0.000679 9.278123 0.000000 -0.000000 -0.000000 8.207792 -6.751710 -1.599556 -0.074518 -0.000003 0.000081 -0.000002 -44.370014 0.346960 0.148822 0.000002 0.000000 -0.000001 -44.423664 -3.044403 -0.074314 0.000000 -0.000002 -0.000004 -8.728671 10.710558 0.000007 -0.000000 -0.000000 0.000000 -0.000680 9.278137 -0.000000 0.000000 -0.000001 
